<svg width="80" height="80" viewBox="0 0 80 80" fill="none" xmlns="http://www.w3.org/2000/svg">
<g filter="url(#filter0_d)">
<path fill-rule="evenodd" clip-rule="evenodd" d="M16 36C16 22.7452 26.7452 12 40 12C53.2548 12 64 22.7452 64 36C64 49.2548 53.2548 60 40 60C26.7452 60 16 49.2548 16 36Z" fill="white"/>
</g>
<path fill-rule="evenodd" clip-rule="evenodd" d="M29 36C29 29.928 33.917 25 39.989 25C46.072 25 51 29.928 51 36C51 42.072 46.072 47 39.989 47C33.917 47 29 42.072 29 36ZM44.367 31.6H47.612C46.556 29.7849 44.873 28.377 42.849 27.684C43.509 28.9049 44.015 30.225 44.367 31.6ZM40 27.244C40.913 28.564 41.628 30.027 42.101 31.6H37.899C38.372 30.027 39.087 28.564 40 27.244ZM31.2 36C31.2 36.759 31.31 37.4961 31.486 38.2001H35.204C35.116 37.474 35.05 36.748 35.05 36C35.05 35.2521 35.116 34.526 35.204 33.8H31.486C31.31 34.504 31.2 35.2411 31.2 36ZM32.388 40.4H35.633C35.985 41.775 36.491 43.095 37.151 44.316C35.127 43.623 33.444 42.2261 32.388 40.4ZM32.388 31.6H35.633C35.985 30.225 36.491 28.9049 37.151 27.684C35.127 28.377 33.444 29.7739 32.388 31.6ZM40 44.756C39.087 43.436 38.372 41.973 37.899 40.4H42.101C41.628 41.973 40.913 43.436 40 44.756ZM37.25 36C37.25 36.748 37.327 37.474 37.426 38.2001H42.574C42.673 37.474 42.75 36.748 42.75 36C42.75 35.2521 42.673 34.515 42.574 33.8H37.426C37.327 34.515 37.25 35.2521 37.25 36ZM42.849 44.316C43.509 43.095 44.015 41.775 44.367 40.4H47.612C46.556 42.215 44.873 43.623 42.849 44.316ZM44.95 36C44.95 36.748 44.884 37.474 44.796 38.2001H48.514C48.69 37.4961 48.8 36.759 48.8 36C48.8 35.2411 48.69 34.504 48.514 33.8H44.796C44.884 34.526 44.95 35.2521 44.95 36Z" fill="#A0B0B9"/>
<defs>
<filter id="filter0_d" x="0" y="0" width="80" height="80" filterUnits="userSpaceOnUse" color-interpolation-filters="sRGB">
<feFlood flood-opacity="0" result="BackgroundImageFix"/>
<feColorMatrix in="SourceAlpha" type="matrix" values="0 0 0 0 0 0 0 0 0 0 0 0 0 0 0 0 0 0 127 0"/>
<feOffset dy="4"/>
<feGaussianBlur stdDeviation="8"/>
<feColorMatrix type="matrix" values="0 0 0 0 0.290196 0 0 0 0 0.290196 0 0 0 0 0.290196 0 0 0 0.12 0"/>
<feBlend mode="normal" in2="BackgroundImageFix" result="effect1_dropShadow"/>
<feBlend mode="normal" in="SourceGraphic" in2="effect1_dropShadow" result="shape"/>
</filter>
</defs>
</svg>
