<svg width="56" height="56" viewBox="0 0 56 56" fill="none" xmlns="http://www.w3.org/2000/svg">
<g filter="url(#filter0_d)">
<path fill-rule="evenodd" clip-rule="evenodd" d="M4 26C4 12.7452 14.7452 2 28 2C41.2548 2 52 12.7452 52 26C52 39.2548 41.2548 50 28 50C14.7452 50 4 39.2548 4 26Z" fill="white"/>
</g>
<path fill-rule="evenodd" clip-rule="evenodd" d="M28 15L17 20.238V21.2858C17 21.8682 17.4884 22.3334 18.0912 22.3334H37.9088C38.4995 22.3334 39 21.864 39 21.2858V20.238L28 15ZM22.5 25.4762V30.7144C23.1083 30.7196 23.6 31.1826 23.6 31.762C23.6 32.3402 23.1138 32.8096 22.489 32.8096H20.311C19.6972 32.8096 19.2 32.3444 19.2 31.762C19.2 31.1858 19.6818 30.7196 20.3 30.7144V25.4762C19.6917 25.4709 19.2 25.0079 19.2 24.4286C19.2 23.8503 19.6862 23.381 20.311 23.381H22.489C23.1028 23.381 23.6 23.8461 23.6 24.4286C23.6 25.0048 23.1182 25.4709 22.5 25.4762ZM29.1 30.7144V25.4762C29.7182 25.4709 30.2 25.0048 30.2 24.4286C30.2 23.8461 29.7028 23.381 29.089 23.381H26.911C26.2862 23.381 25.8 23.8503 25.8 24.4286C25.8 25.0079 26.2917 25.4709 26.9 25.4762V30.7144C26.2818 30.7196 25.8 31.1858 25.8 31.762C25.8 32.3444 26.2972 32.8096 26.911 32.8096H29.089C29.7127 32.8096 30.2 32.3402 30.2 31.762C30.2 31.1826 29.7083 30.7196 29.1 30.7144ZM35.7 30.7144V25.4762C36.3182 25.4709 36.8 25.0048 36.8 24.4286C36.8 23.8461 36.3028 23.381 35.689 23.381H33.511C32.8862 23.381 32.4 23.8503 32.4 24.4286C32.4 25.0079 32.8917 25.4709 33.5 25.4762V30.7144C32.8818 30.7196 32.4 31.1858 32.4 31.762C32.4 32.3444 32.8972 32.8096 33.511 32.8096H35.689C36.3127 32.8096 36.8 32.3402 36.8 31.762C36.8 31.1826 36.3083 30.7196 35.7 30.7144ZM17 34.9048C17 34.3254 17.5005 33.8572 18.0912 33.8572H37.9088C38.5116 33.8572 39 34.3213 39 34.9048V35.9524C39 36.5317 38.4995 37 37.9088 37H18.0912C17.4884 37 17 36.5359 17 35.9524V34.9048Z" fill="#A0B0B9"/>
<defs>
<filter id="filter0_d" x="0" y="0" width="56" height="56" filterUnits="userSpaceOnUse" color-interpolation-filters="sRGB">
<feFlood flood-opacity="0" result="BackgroundImageFix"/>
<feColorMatrix in="SourceAlpha" type="matrix" values="0 0 0 0 0 0 0 0 0 0 0 0 0 0 0 0 0 0 127 0"/>
<feOffset dy="2"/>
<feGaussianBlur stdDeviation="2"/>
<feColorMatrix type="matrix" values="0 0 0 0 0.290196 0 0 0 0 0.290196 0 0 0 0 0.290196 0 0 0 0.1 0"/>
<feBlend mode="normal" in2="BackgroundImageFix" result="effect1_dropShadow"/>
<feBlend mode="normal" in="SourceGraphic" in2="effect1_dropShadow" result="shape"/>
</filter>
</defs>
</svg>
