<svg width="79" height="25" viewBox="0 0 79 25" fill="none" xmlns="http://www.w3.org/2000/svg">
<path d="M32.6514 14.4023H28.4814L27.5449 17H26.1914L29.9922 7.04688H31.1406L34.9482 17H33.6016L32.6514 14.4023ZM28.8779 13.3223H32.2617L30.5664 8.66699L28.8779 13.3223ZM37.2861 9.60352L37.3271 10.5332C37.8923 9.82227 38.6305 9.4668 39.542 9.4668C41.1051 9.4668 41.8936 10.3486 41.9072 12.1123V17H40.6426V12.1055C40.638 11.5723 40.515 11.1781 40.2734 10.9229C40.0365 10.6676 39.665 10.54 39.1592 10.54C38.749 10.54 38.389 10.6494 38.0791 10.8682C37.7692 11.0869 37.5277 11.374 37.3545 11.7295V17H36.0898V9.60352H37.2861ZM43.5068 13.2402C43.5068 12.1055 43.7757 11.194 44.3135 10.5059C44.8512 9.81315 45.5553 9.4668 46.4258 9.4668C47.2917 9.4668 47.9775 9.76302 48.4834 10.3555V6.5H49.748V17H48.5859L48.5244 16.207C48.0186 16.8268 47.3145 17.1367 46.4121 17.1367C45.5553 17.1367 44.8558 16.7858 44.3135 16.084C43.7757 15.3822 43.5068 14.4661 43.5068 13.3359V13.2402ZM44.7715 13.3838C44.7715 14.2223 44.9447 14.8786 45.291 15.3525C45.6374 15.8265 46.1159 16.0635 46.7266 16.0635C47.5286 16.0635 48.1143 15.7035 48.4834 14.9834V11.5859C48.1051 10.8887 47.5241 10.54 46.7402 10.54C46.1204 10.54 45.6374 10.7793 45.291 11.2578C44.9447 11.7363 44.7715 12.445 44.7715 13.3838ZM55.292 10.7383C55.1006 10.7064 54.8932 10.6904 54.6699 10.6904C53.8405 10.6904 53.2777 11.0436 52.9814 11.75V17H51.7168V9.60352H52.9473L52.9678 10.458C53.3825 9.7972 53.9704 9.4668 54.7314 9.4668C54.9775 9.4668 55.1644 9.4987 55.292 9.5625V10.7383ZM55.9893 13.2334C55.9893 12.5088 56.1305 11.8571 56.4131 11.2783C56.7002 10.6995 57.0967 10.2529 57.6025 9.93848C58.113 9.62402 58.694 9.4668 59.3457 9.4668C60.3529 9.4668 61.1663 9.81543 61.7861 10.5127C62.4105 11.21 62.7227 12.1374 62.7227 13.2949V13.3838C62.7227 14.1038 62.5837 14.751 62.3057 15.3252C62.0322 15.8949 61.638 16.3392 61.123 16.6582C60.6126 16.9772 60.0247 17.1367 59.3594 17.1367C58.3568 17.1367 57.5433 16.7881 56.9189 16.0908C56.2992 15.3936 55.9893 14.4707 55.9893 13.3223V13.2334ZM57.2607 13.3838C57.2607 14.2041 57.4499 14.8626 57.8281 15.3594C58.2109 15.8561 58.7214 16.1045 59.3594 16.1045C60.002 16.1045 60.5124 15.8538 60.8906 15.3525C61.2689 14.8467 61.458 14.1403 61.458 13.2334C61.458 12.4222 61.2643 11.766 60.877 11.2646C60.4941 10.7588 59.9837 10.5059 59.3457 10.5059C58.7214 10.5059 58.2178 10.7542 57.835 11.251C57.4521 11.7477 57.2607 12.4587 57.2607 13.3838ZM65.6826 17H64.418V9.60352H65.6826V17ZM64.3154 7.6416C64.3154 7.43652 64.377 7.26335 64.5 7.12207C64.6276 6.98079 64.8145 6.91016 65.0605 6.91016C65.3066 6.91016 65.4935 6.98079 65.6211 7.12207C65.7487 7.26335 65.8125 7.43652 65.8125 7.6416C65.8125 7.84668 65.7487 8.01758 65.6211 8.1543C65.4935 8.29102 65.3066 8.35938 65.0605 8.35938C64.8145 8.35938 64.6276 8.29102 64.5 8.1543C64.377 8.01758 64.3154 7.84668 64.3154 7.6416ZM67.4053 13.2402C67.4053 12.1055 67.6742 11.194 68.2119 10.5059C68.7497 9.81315 69.4538 9.4668 70.3242 9.4668C71.1901 9.4668 71.876 9.76302 72.3818 10.3555V6.5H73.6465V17H72.4844L72.4229 16.207C71.917 16.8268 71.2129 17.1367 70.3105 17.1367C69.4538 17.1367 68.7542 16.7858 68.2119 16.084C67.6742 15.3822 67.4053 14.4661 67.4053 13.3359V13.2402ZM68.6699 13.3838C68.6699 14.2223 68.8431 14.8786 69.1895 15.3525C69.5358 15.8265 70.0143 16.0635 70.625 16.0635C71.4271 16.0635 72.0127 15.7035 72.3818 14.9834V11.5859C72.0036 10.8887 71.4225 10.54 70.6387 10.54C70.0189 10.54 69.5358 10.7793 69.1895 11.2578C68.8431 11.7363 68.6699 12.445 68.6699 13.3838Z" fill="white"/>
<path fill-rule="evenodd" clip-rule="evenodd" d="M13.0511 2.03174C13.0948 2.06201 13.1209 2.10889 13.1282 2.16064C13.132 2.1875 13.1306 2.21533 13.124 2.24316C13.1176 2.27051 13.1058 2.29785 13.0887 2.32275L11.9493 3.99219C13.7608 4.84326 14.8383 6.11328 15 8H3C3.1615 6.11328 4.29095 4.84326 6.10223 3.99219L4.96301 2.32275C4.89526 2.22363 4.91217 2.09326 5.00043 2.03174C5.08887 1.97021 5.21533 2.00049 5.28302 2.1001L6.46655 3.83447C7.24652 3.52441 8.11304 3.35156 9.02588 3.35156C9.93872 3.35156 10.8052 3.52441 11.5852 3.83447L12.7687 2.1001C12.8094 2.04004 12.8714 2.00537 12.9336 2.00049C12.9748 1.99756 13.016 2.00732 13.0511 2.03174ZM3 19C3 19.6025 3.4939 20.0576 4.09088 20.0576H4.90912V23.3662C4.90912 24.1514 5.37091 25 6.13635 25C6.90198 25 7.36365 24.1514 7.36365 23.3662V20.0576H10.6364V23.3662C10.6364 24.1514 11.0982 25 11.8636 25C12.6293 25 13.0909 24.1514 13.0909 23.3662V20.0576H13.9091C14.5063 20.0576 15 19.6025 15 19V9H3V19ZM0 10.7056C0 9.93213 0.447754 9.30566 1 9.30566C1.55225 9.30566 2 9.93213 2 10.7056V16.1763C2 16.9497 1.55225 17.5767 1 17.5767C0.447754 17.5767 0 16.9497 0 16.1763V10.7056ZM16 10.7056C16 9.93213 16.4478 9.30566 16.9999 9.30566C17.5522 9.30566 18 9.93213 18 10.7056V16.1763C18 16.9497 17.5522 17.5767 16.9999 17.5767C16.4478 17.5767 16 16.9497 16 16.1763V10.7056ZM6.42395 6.62402C6.04718 6.62402 5.74164 6.31543 5.74164 5.93506C5.74164 5.55469 6.04718 5.24609 6.42395 5.24609C6.80109 5.24609 7.10645 5.55469 7.10645 5.93506C7.10645 6.31543 6.80109 6.62402 6.42395 6.62402ZM11.0306 5.93506C11.0306 6.31543 11.3362 6.62402 11.713 6.62402C12.0899 6.62402 12.3954 6.31543 12.3954 5.93506C12.3954 5.55469 12.0899 5.24609 11.713 5.24609C11.3362 5.24609 11.0306 5.55469 11.0306 5.93506Z" fill="white"/>
</svg>
