<svg width="133" height="25" viewBox="0 0 133 25" fill="none" xmlns="http://www.w3.org/2000/svg">
<path d="M28.3311 17H27.0664V9.60352H28.3311V17ZM26.9639 7.6416C26.9639 7.43652 27.0254 7.26335 27.1484 7.12207C27.276 6.98079 27.4629 6.91016 27.709 6.91016C27.9551 6.91016 28.1419 6.98079 28.2695 7.12207C28.3971 7.26335 28.4609 7.43652 28.4609 7.6416C28.4609 7.84668 28.3971 8.01758 28.2695 8.1543C28.1419 8.29102 27.9551 8.35938 27.709 8.35938C27.4629 8.35938 27.276 8.29102 27.1484 8.1543C27.0254 8.01758 26.9639 7.84668 26.9639 7.6416ZM31.8721 13.1035V17H30.5596V7.04688H34.2305C35.3197 7.04688 36.1719 7.32487 36.7871 7.88086C37.4069 8.43685 37.7168 9.17285 37.7168 10.0889C37.7168 11.055 37.4137 11.8001 36.8076 12.3242C36.2061 12.8438 35.3424 13.1035 34.2168 13.1035H31.8721ZM31.8721 12.0303H34.2305C34.9323 12.0303 35.4701 11.8662 35.8438 11.5381C36.2174 11.2054 36.4043 10.7269 36.4043 10.1025C36.4043 9.51009 36.2174 9.03613 35.8438 8.68066C35.4701 8.3252 34.9574 8.14062 34.3057 8.12695H31.8721V12.0303ZM40.458 10.499C41.0186 9.81087 41.7477 9.4668 42.6455 9.4668C44.2087 9.4668 44.9971 10.3486 45.0107 12.1123V17H43.7461V12.1055C43.7415 11.5723 43.6185 11.1781 43.377 10.9229C43.14 10.6676 42.7686 10.54 42.2627 10.54C41.8525 10.54 41.4925 10.6494 41.1826 10.8682C40.8727 11.0869 40.6312 11.374 40.458 11.7295V17H39.1934V6.5H40.458V10.499ZM46.5693 13.2334C46.5693 12.5088 46.7106 11.8571 46.9932 11.2783C47.2803 10.6995 47.6768 10.2529 48.1826 9.93848C48.693 9.62402 49.2741 9.4668 49.9258 9.4668C50.9329 9.4668 51.7464 9.81543 52.3662 10.5127C52.9906 11.21 53.3027 12.1374 53.3027 13.2949V13.3838C53.3027 14.1038 53.1637 14.751 52.8857 15.3252C52.6123 15.8949 52.2181 16.3392 51.7031 16.6582C51.1927 16.9772 50.6048 17.1367 49.9395 17.1367C48.9368 17.1367 48.1234 16.7881 47.499 16.0908C46.8792 15.3936 46.5693 14.4707 46.5693 13.3223V13.2334ZM47.8408 13.3838C47.8408 14.2041 48.0299 14.8626 48.4082 15.3594C48.791 15.8561 49.3014 16.1045 49.9395 16.1045C50.582 16.1045 51.0924 15.8538 51.4707 15.3525C51.849 14.8467 52.0381 14.1403 52.0381 13.2334C52.0381 12.4222 51.8444 11.766 51.457 11.2646C51.0742 10.7588 50.5638 10.5059 49.9258 10.5059C49.3014 10.5059 48.7979 10.7542 48.415 11.251C48.0322 11.7477 47.8408 12.4587 47.8408 13.3838ZM56.085 9.60352L56.126 10.5332C56.6911 9.82227 57.4294 9.4668 58.3408 9.4668C59.904 9.4668 60.6924 10.3486 60.7061 12.1123V17H59.4414V12.1055C59.4368 11.5723 59.3138 11.1781 59.0723 10.9229C58.8353 10.6676 58.4639 10.54 57.958 10.54C57.5479 10.54 57.1878 10.6494 56.8779 10.8682C56.568 11.0869 56.3265 11.374 56.1533 11.7295V17H54.8887V9.60352H56.085ZM65.6826 17.1367C64.68 17.1367 63.8643 16.8086 63.2354 16.1523C62.6064 15.4915 62.292 14.6097 62.292 13.5068V13.2744C62.292 12.5407 62.431 11.8867 62.709 11.3125C62.9915 10.7337 63.3835 10.2826 63.8848 9.95898C64.3906 9.63086 64.9375 9.4668 65.5254 9.4668C66.487 9.4668 67.2344 9.78353 67.7676 10.417C68.3008 11.0505 68.5674 11.9574 68.5674 13.1377V13.6641H63.5566C63.5749 14.3932 63.7868 14.9834 64.1924 15.4346C64.6025 15.8812 65.1221 16.1045 65.751 16.1045C66.1976 16.1045 66.5758 16.0133 66.8857 15.8311C67.1956 15.6488 67.4668 15.4072 67.6992 15.1064L68.4717 15.708C67.8519 16.6605 66.9222 17.1367 65.6826 17.1367ZM65.5254 10.5059C65.015 10.5059 64.5866 10.6927 64.2402 11.0664C63.8939 11.4355 63.6797 11.9551 63.5977 12.625H67.3027V12.5293C67.2663 11.8867 67.0931 11.39 66.7832 11.0391C66.4733 10.6836 66.054 10.5059 65.5254 10.5059ZM78.2949 9.60352H79.5596V17H78.2949V11.6064L74.8838 17H73.6191V9.60352H74.8838V15.0039L78.2949 9.60352ZM87.6533 9.60352V17H86.3818V10.6494H83.8662L83.7158 13.418C83.6338 14.6895 83.4196 15.5986 83.0732 16.1455C82.7314 16.6924 82.1868 16.9772 81.4395 17H80.9336V15.8857L81.2959 15.8584C81.7061 15.8128 82 15.5758 82.1777 15.1475C82.3555 14.7191 82.4694 13.9261 82.5195 12.7686L82.6562 9.60352H87.6533ZM94.4688 9.60352H95.7334V17H94.4688V11.6064L91.0576 17H89.793V9.60352H91.0576V15.0039L94.4688 9.60352ZM102.61 17H101.346V9.60352H102.61V17ZM101.243 7.6416C101.243 7.43652 101.305 7.26335 101.428 7.12207C101.555 6.98079 101.742 6.91016 101.988 6.91016C102.234 6.91016 102.421 6.98079 102.549 7.12207C102.676 7.26335 102.74 7.43652 102.74 7.6416C102.74 7.84668 102.676 8.01758 102.549 8.1543C102.421 8.29102 102.234 8.35938 101.988 8.35938C101.742 8.35938 101.555 8.29102 101.428 8.1543C101.305 8.01758 101.243 7.84668 101.243 7.6416ZM106.151 13.1035V17H104.839V7.04688H108.51C109.599 7.04688 110.451 7.32487 111.066 7.88086C111.686 8.43685 111.996 9.17285 111.996 10.0889C111.996 11.055 111.693 11.8001 111.087 12.3242C110.485 12.8438 109.622 13.1035 108.496 13.1035H106.151ZM106.151 12.0303H108.51C109.212 12.0303 109.749 11.8662 110.123 11.5381C110.497 11.2054 110.684 10.7269 110.684 10.1025C110.684 9.51009 110.497 9.03613 110.123 8.68066C109.749 8.3252 109.237 8.14062 108.585 8.12695H106.151V12.0303ZM117.957 17C117.884 16.8542 117.825 16.5944 117.779 16.2207C117.191 16.8314 116.49 17.1367 115.674 17.1367C114.945 17.1367 114.345 16.9316 113.876 16.5215C113.411 16.1068 113.179 15.5827 113.179 14.9492C113.179 14.179 113.47 13.582 114.054 13.1582C114.642 12.7298 115.466 12.5156 116.528 12.5156H117.759V11.9346C117.759 11.4925 117.627 11.1416 117.362 10.8818C117.098 10.6175 116.708 10.4854 116.193 10.4854C115.742 10.4854 115.364 10.5993 115.059 10.8271C114.753 11.055 114.601 11.3307 114.601 11.6543H113.329C113.329 11.2852 113.459 10.9297 113.719 10.5879C113.983 10.2415 114.339 9.9681 114.785 9.76758C115.236 9.56706 115.731 9.4668 116.269 9.4668C117.121 9.4668 117.788 9.68099 118.271 10.1094C118.755 10.5332 119.005 11.1188 119.023 11.8662V15.2705C119.023 15.9495 119.11 16.4896 119.283 16.8906V17H117.957ZM115.858 16.0361C116.255 16.0361 116.631 15.9336 116.986 15.7285C117.342 15.5234 117.599 15.2568 117.759 14.9287V13.4111H116.768C115.218 13.4111 114.443 13.8646 114.443 14.7715C114.443 15.168 114.576 15.4779 114.84 15.7012C115.104 15.9245 115.444 16.0361 115.858 16.0361ZM120.698 13.2402C120.698 12.1055 120.967 11.194 121.505 10.5059C122.043 9.81315 122.747 9.4668 123.617 9.4668C124.483 9.4668 125.169 9.76302 125.675 10.3555V6.5H126.939V17H125.777L125.716 16.207C125.21 16.8268 124.506 17.1367 123.604 17.1367C122.747 17.1367 122.047 16.7858 121.505 16.084C120.967 15.3822 120.698 14.4661 120.698 13.3359V13.2402ZM121.963 13.3838C121.963 14.2223 122.136 14.8786 122.482 15.3525C122.829 15.8265 123.307 16.0635 123.918 16.0635C124.72 16.0635 125.306 15.7035 125.675 14.9834V11.5859C125.297 10.8887 124.715 10.54 123.932 10.54C123.312 10.54 122.829 10.7793 122.482 11.2578C122.136 11.7363 121.963 12.445 121.963 13.3838Z" fill="white"/>
<path fill-rule="evenodd" clip-rule="evenodd" d="M13.4 0C13.5428 1.28809 13.0226 2.58301 12.2496 3.5127C11.4777 4.44238 10.2118 5.16504 8.97223 5.06934C8.80157 3.80811 9.42926 2.48975 10.1436 1.6665C10.9418 0.737793 12.2869 0.0439453 13.4 0ZM17.4222 7.50146C17.3166 7.56592 15.0075 8.9043 15.0338 11.688C15.0632 15.0176 17.9664 16.127 18 16.1392C17.9743 16.2183 17.5355 17.7183 16.4691 19.2671C15.5475 20.6094 14.593 21.9443 13.0861 21.9717C12.3629 21.9849 11.8792 21.7769 11.3763 21.5601C10.8498 21.3335 10.3024 21.0981 9.43726 21.0981C8.53094 21.0981 7.95801 21.3408 7.40625 21.5747C6.92792 21.7773 6.46545 21.9731 5.81555 21.9985C4.36127 22.0537 3.25336 20.5498 2.3255 19.2148C0.427307 16.4834 -1.02393 11.4956 0.924744 8.12939C1.89203 6.45801 3.62128 5.39893 5.49701 5.37109C6.30682 5.35596 7.09039 5.66553 7.77649 5.93604C8.30109 6.14307 8.76868 6.32764 9.14752 6.32764C9.48083 6.32764 9.9165 6.15576 10.4308 5.95312C11.2455 5.63184 12.2574 5.23291 13.3727 5.31543C14.0861 5.36816 16.1107 5.58057 17.4222 7.50146Z" fill="white"/>
</svg>
