<svg width="56" height="56" viewBox="0 0 56 56" fill="none" xmlns="http://www.w3.org/2000/svg">
<g filter="url(#filter0_d)">
<path fill-rule="evenodd" clip-rule="evenodd" d="M4 26C4 12.7452 14.7452 2 28 2C41.2548 2 52 12.7452 52 26C52 39.2548 41.2548 50 28 50C14.7452 50 4 39.2548 4 26Z" fill="white"/>
</g>
<path d="M19.7842 19.049C20.8226 18.2149 22.0942 17.9777 23.4692 18.0982C25.3975 18.2637 27.0508 19.0194 28.6194 19.9415L28.9714 20.1519C29.0187 19.9941 29.0594 19.8592 29.0979 19.7234C29.4411 18.5277 30.0527 17.4679 31.2033 16.6912C32.7763 15.6314 34.7178 15.7672 36.1863 16.7648C34.2129 17.0097 32.8841 18.0437 31.6961 19.3828C32.2901 19.3063 32.7961 19.2298 33.3021 19.1772C34.3284 19.072 35.3514 19.0835 36.3546 19.3178C38.2246 19.7559 39.2982 20.8521 39.7096 22.4456C39.8636 23.0339 39.9054 23.6432 39.9989 24.2439L39.8999 24.2793C39.7822 24.1712 39.6689 24.0631 39.5479 23.9569C38.2972 22.8378 36.8386 22.0228 35.0357 21.7435C33.9907 21.5809 32.9545 21.6163 31.9579 21.9788C31.8072 22.0324 31.6675 22.1099 31.5267 22.1759C34.0633 22.4246 35.941 23.5896 37.3809 25.297C38.8802 27.0733 38.9462 28.9815 37.7846 30.9233C37.1939 31.9114 36.0796 33.0793 35.105 33.7661C35.0764 33.4313 35.061 33.1118 35.0192 32.7952C34.7475 30.6966 34.1535 28.6793 32.9215 26.8361C32.3429 25.9695 31.618 25.2119 30.5675 24.7355C30.4531 24.6839 30.3343 24.6428 30.1715 24.5787C30.155 24.7365 30.1352 24.8675 30.1297 24.9995C30.0241 27.4702 29.7777 29.9285 29.0924 32.3389C28.7404 33.5824 28.2982 34.8001 27.5414 35.9144C27.5161 35.9527 27.2598 36.2368 27.2598 36.2368C26.8891 36.6538 26.096 36.9895 25.491 36.9876L21.4595 36.9742C20.2451 36.9695 19.969 36.3621 20.8292 35.6227C20.8292 35.6227 21.9072 34.7235 23.0314 33.6685C25.4492 31.3987 26.8616 28.707 27.3764 25.6605C27.4314 25.3315 27.4842 25.0005 27.5491 24.6035C25.4811 25.2377 23.8751 26.3234 22.5683 27.7562C21.2538 29.1987 20.4849 30.8248 20.4266 32.6852C20.3903 32.6775 20.3551 32.6795 20.3386 32.6661C19.2881 31.7191 18.4653 30.6631 18.2178 29.3374C17.9648 27.9695 18.3652 26.7232 19.276 25.6108C20.706 23.8622 22.6453 22.7508 25.0873 22.3155C25.3106 22.2754 25.5405 22.2581 25.7693 22.2448C25.9926 22.2333 26.2181 22.2428 26.5107 22.2428C26.1202 21.8794 25.6857 21.6861 25.2127 21.5637C24.0555 21.2672 22.906 21.3772 21.7675 21.6402C20.4079 21.9559 19.1605 22.4695 18 23.2835C18.0726 21.6575 18.3795 20.1729 19.7842 19.0461V19.049Z" fill="#A0B0B9"/>
<defs>
<filter id="filter0_d" x="0" y="0" width="56" height="56" filterUnits="userSpaceOnUse" color-interpolation-filters="sRGB">
<feFlood flood-opacity="0" result="BackgroundImageFix"/>
<feColorMatrix in="SourceAlpha" type="matrix" values="0 0 0 0 0 0 0 0 0 0 0 0 0 0 0 0 0 0 127 0"/>
<feOffset dy="2"/>
<feGaussianBlur stdDeviation="2"/>
<feColorMatrix type="matrix" values="0 0 0 0 0.290196 0 0 0 0 0.290196 0 0 0 0 0.290196 0 0 0 0.1 0"/>
<feBlend mode="normal" in2="BackgroundImageFix" result="effect1_dropShadow"/>
<feBlend mode="normal" in="SourceGraphic" in2="effect1_dropShadow" result="shape"/>
</filter>
</defs>
</svg>
